<svg xmlns="http://www.w3.org/2000/svg" width="1536" height="512" viewBox="0 0 406.4 135.467"><path d="M9.21 3.273v123.758h28.678l.175-48.534h16.79q14.025 0 23.715-4.335 9.69-4.42 14.705-12.835t5.015-20.315q0-10.965-5.015-19.464-5.015-8.585-14.705-13.43T54.854 3.273Zm365.437 5.455c-4.871.833-12.863 26.335-12.863 26.335h-16.83v12.07h16.83v57.033q0 9.18 2.805 14.62 2.889 5.355 7.734 7.65t10.625 2.295q4.25 0 7.225-.595 3.06-.51 4.93-1.105l-.085-12.834q-1.106.255-3.315.68-2.125.34-4.08.34-2.635 0-4.93-.766-2.295-.765-3.74-3.145t-1.445-7.055V47.132h17.17V35.063h-17.17l-.124-22.355c-.655-3.051-1.613-4.173-2.737-3.98m-341.82 8.907c2.82.042 5.385 1.687 7.47 4.406 1.506-1.52 3.819-2.48 6.409-2.44l8.906.13c2.015.03 3.835.66 5.223 1.673 2.014-2.05 4.312-3.29 6.766-3.255 7.287.108 12.96 10.726 12.673 23.716S73.846 65.297 66.56 65.19c-2.221-.033-4.258-1.134-6.056-2.89-1.494 1.235-3.576 1.989-5.878 1.955l-8.905-.132c-2.857-.042-5.324-1.284-6.714-3.127-2.113 2.342-4.587 3.718-7.222 3.68-7.287-.108-12.961-10.726-12.673-23.716.287-12.99 6.428-23.433 13.715-23.325m83.82 3.803v105.593h15.725c-19.998-24.678-.002-43.473 0-65.21.317-.75.645-1.49 1.02-2.193q2.805-5.185 7.735-8.16t12.24-2.975q2.21 0 3.91.17 1.785.084 3.74.51l.085-14.62q-.85-.426-3.06-.765-2.21-.425-3.91-.425-9.945 0-16.32 5.61c-2.143 1.882-5.864-17.535-5.864-17.535zm93.5 11.925q-10.286 0-19.55 5.61-9.18 5.524-14.96 16.15-5.695 10.539-5.695 25.584v3.57q0 12.92 5.185 23.035 5.27 10.03 14.705 15.724 9.52 5.695 22.354 5.695 13.684 0 21.93-5.44 8.244-5.524 12.664-12.325l-9.52-7.565q-4.335 5.695-10.114 9.096t-14.11 3.4q-8.585 0-14.705-4.25-6.12-4.335-9.35-11.475c-2.002-4.48-3.033-9.393-3.173-14.705h62.163v-7.055q0-12.92-3.995-23.034-3.91-10.2-12.325-16.066-8.33-5.95-21.505-5.95m89.503 0q-10.285 0-18.02 3.74-7.65 3.655-11.9 9.775-4.165 6.034-4.165 13.344 0 7.565 3.995 12.665 4.08 5.1 11.475 8.415 7.48 3.315 17.68 5.44c39.136 7.68 19.042 36.06-8.415 27.54q-4.93-1.615-8.33-5.355-3.4-3.826-3.74-10.285h-15.81q0 7.65 4.335 14.535t12.75 11.219 20.57 4.335q10.71 0 18.7-3.4 7.989-3.485 12.409-9.605 4.42-6.204 4.42-14.28 0-7.395-3.57-12.58-3.57-5.184-10.88-8.754t-18.614-6.12c-48.539-10.945-4.871-39.431 11.39-22.61q5.014 5.015 5.014 10.71h15.725q0-7.905-4.165-14.364-4.165-6.546-11.985-10.455-7.82-3.91-18.87-3.91M210.642 51.56c12.783 0 23.145 4.658 23.145 10.403s-10.362 10.403-23.145 10.403-23.144-4.658-23.144-10.403S197.86 51.56 210.642 51.56" style="font-size:174.077px;font-family:Vazirmatn;-inkscape-font-specification:Vazirmatn;fill:#fff;stroke-width:.435193" transform="scale(.99028 1.00982)"/></svg>